<svg height="512" viewBox="0 0 512 512" width="512" xmlns="http://www.w3.org/2000/svg"><g><path d="m364 8h-216a28.031 28.031 0 0 0 -28 28v440a28.031 28.031 0 0 0 28 28h216a28.031 28.031 0 0 0 28-28v-440a28.031 28.031 0 0 0 -28-28zm-62.25 16-4 16h-83.5l-4-16zm74.25 452a12.01 12.01 0 0 1 -12 12h-216a12.01 12.01 0 0 1 -12-12v-440a12.01 12.01 0 0 1 12-12h45.75l6.49 25.94a8 8 0 0 0 7.76 6.06h96a8 8 0 0 0 7.76-6.06l6.49-25.94h45.75a12.01 12.01 0 0 1 12 12z"/><path d="m280 464h-48a8 8 0 0 0 0 16h48a8 8 0 0 0 0-16z"/><path d="m336 320h-160a8 8 0 0 0 -8 8v64a8 8 0 0 0 8 8h160a8 8 0 0 0 8-8v-64a8 8 0 0 0 -8-8zm-8 64h-144v-48h144z"/><path d="m328 176a32 32 0 1 0 -32 32 32.036 32.036 0 0 0 32-32zm-32 16a16 16 0 1 1 16-16 16.019 16.019 0 0 1 -16 16z"/><path d="m184 200a8 8 0 0 0 16 0 8 8 0 0 0 0-16 8 8 0 0 0 -16 0 8 8 0 0 0 0 16z"/><path d="m224 176v48a8 8 0 0 0 16 0v-56a8 8 0 0 0 -8-8h-8a8 8 0 0 0 0 16z"/><path d="m360 112h-208a8 8 0 0 0 -8 8v144a8 8 0 0 0 8 8h32v24a8 8 0 0 0 13.657 5.657l29.657-29.657h132.686a8 8 0 0 0 8-8v-144a8 8 0 0 0 -8-8zm-104 144a32.036 32.036 0 0 1 32-32h16a32.036 32.036 0 0 1 32 32zm96 0a48.055 48.055 0 0 0 -48-48h-16a48.055 48.055 0 0 0 -48 48h-16a8 8 0 0 0 -5.657 2.343l-18.343 18.343v-12.686a8 8 0 0 0 -8-8h-32v-128h192z"/></g></svg>