<svg height="512pt" viewBox="0 -2 512 511" width="512pt" xmlns="http://www.w3.org/2000/svg"><path d="m496 .5v167.054688l-16-8v-159.054688h-16v160l-8 6-8-6v-160h-16v159.054688l-16 8v-167.054688h-16v182.320312l56 88.664063 56-88.664063v-182.320312zm-40 241.015625-15.800781-25.015625h31.601562zm25.902344-41.015625h-51.804688l-10.609375-16.800781 19.710938-9.832031 16.800781 12.632812 16.800781-12.632812 19.710938 9.832031zm0 0"/><path d="m225.753906 176.5-28 112h116.492188l-28-112zm-7.507812 96 20-80h35.507812l20 80zm0 0"/><path d="m312 103.242188v-54.742188h32v-16h-32v-32h-16v32h-80v-32h-16v32h-32v16h32v54.742188l-23.761719 73.257812h-112.238281v-32h-16v32h-48v16h48v80h-48v16h48v32h16v-32h75.910156l-51.910156 160h-40v16h34.832031l-12.167969 37.527344 15.199219 4.945312 13.792969-42.472656h49.734375l-10.796875 37.800781 15.390625 4.398438 12.054687-42.199219h41.960938v-16h-37.390625l27.421875-96h115.9375l27.421875 96h-37.390625v16h41.960938l12.054687 42.199219 15.390625-4.398438-10.796875-37.800781h49.734375l13.777344 42.472656 15.199218-4.945312-12.152343-37.527344h34.832031v-16h-40zm-96-54.742188h80v48h-80zm-152 224v-80h107.046875l-25.941406 80zm89.960938 176h-49.121094l12.976562-40h47.574219zm188.070312-56-16-56h-140.0625l-16 56h-46.960938l90.808594-280h84.367188l90.808594 280zm16 56-11.429688-40h47.574219l13.023438 40zm0 0"/></svg>